<svg width="28" height="29" viewBox="0 0 28 29" fill="none" xmlns="http://www.w3.org/2000/svg">
<g filter="url(#filter0_ii_145_3194)">
<path d="M11.8996 1.31826C13.1133 0.0539497 15.1367 0.0539501 16.3504 1.31826C17.1053 2.10476 18.2201 2.4341 19.2812 2.18364C20.9783 1.78304 22.6749 2.89734 23.016 4.60736C23.2298 5.67919 23.9926 6.57603 25.0212 6.94557C26.6682 7.53729 27.4968 9.3901 26.8658 11.0224C26.4705 12.0449 26.6339 13.2146 27.2999 14.0853C28.3675 15.481 28.0848 17.488 26.6672 18.5263C25.7839 19.1732 25.3035 20.2507 25.3974 21.3414C25.547 23.08 24.2333 24.6288 22.4911 24.7276C21.4016 24.7894 20.4206 25.4288 19.9165 26.3966C19.1096 27.9455 17.1685 28.5285 15.6524 27.6614C14.7061 27.1201 13.5439 27.1201 12.5976 27.6614C11.0815 28.5285 9.14042 27.9455 8.33351 26.3966C7.82935 25.4288 6.84842 24.7894 5.75894 24.7276C4.0167 24.6288 2.70301 23.08 2.85265 21.3414C2.94653 20.2507 2.46609 19.1732 1.58284 18.5263C0.165174 17.488 -0.117525 15.481 0.950096 14.0853C1.6161 13.2146 1.77947 12.0449 1.38421 11.0224C0.753191 9.3901 1.58181 7.53729 3.22881 6.94557C4.25739 6.57603 5.02022 5.67919 5.23403 4.60736C5.57514 2.89734 7.27174 1.78304 8.96881 2.18364C10.0299 2.4341 11.1447 2.10476 11.8996 1.31826Z" fill="#D9DBDD"/>
</g>
<path d="M24.6745 14.5988C24.6745 20.4418 19.9378 25.1785 14.0947 25.1785C8.25172 25.1785 3.51501 20.4418 3.51501 14.5988C3.51501 8.75575 8.25172 4.01904 14.0947 4.01904C19.9378 4.01904 24.6745 8.75575 24.6745 14.5988ZM5.69312 14.5988C5.69312 19.2389 9.45466 23.0004 14.0947 23.0004C18.7348 23.0004 22.4964 19.2389 22.4964 14.5988C22.4964 9.95869 18.7348 6.19715 14.0947 6.19715C9.45466 6.19715 5.69312 9.95869 5.69312 14.5988Z" fill="white" fill-opacity="0.5"/>
<path d="M14.0947 5.1081C14.0947 4.50663 14.5836 4.01324 15.1819 4.07504C16.8901 4.25151 18.5356 4.84191 19.9725 5.80205C21.7124 6.96456 23.0684 8.61689 23.8691 10.5501C24.6699 12.4833 24.8794 14.6105 24.4712 16.6628C24.063 18.715 23.0553 20.6002 21.5757 22.0798C20.0961 23.5594 18.211 24.567 16.1587 24.9752C14.1065 25.3834 11.9792 25.1739 10.0461 24.3732C8.11286 23.5724 6.46054 22.2164 5.29802 20.4766C4.33788 19.0396 3.74748 17.3942 3.57101 15.6859C3.50921 15.0877 4.0026 14.5988 4.60407 14.5988C5.20554 14.5988 5.68586 15.0884 5.76361 15.6848C5.93003 16.9615 6.38839 18.1879 7.10905 19.2665C8.03223 20.6481 9.34439 21.725 10.8796 22.3609C12.4148 22.9968 14.1041 23.1631 15.7338 22.839C17.3636 22.5148 18.8606 21.7146 20.0356 20.5396C21.2106 19.3646 22.0107 17.8676 22.3349 16.2378C22.6591 14.6081 22.4927 12.9188 21.8568 11.3836C21.2209 9.84842 20.1441 8.53626 18.7624 7.61308C17.6839 6.89242 16.4574 6.43406 15.1808 6.26763C14.5843 6.18989 14.0947 5.70957 14.0947 5.1081Z" fill="white" fill-opacity="0.7"/>
<g clip-path="url(#clip0_145_3194)">
<path d="M16.5 12.3334H16.0833V11.5C16.0833 10.35 15.15 9.41669 14 9.41669C12.85 9.41669 11.9166 10.35 11.9166 11.5V12.3334H11.5C11.0416 12.3334 10.6666 12.7084 10.6666 13.1667V17.3334C10.6666 17.7917 11.0416 18.1667 11.5 18.1667H16.5C16.9583 18.1667 17.3333 17.7917 17.3333 17.3334V13.1667C17.3333 12.7084 16.9583 12.3334 16.5 12.3334ZM14 16.0834C13.5416 16.0834 13.1666 15.7084 13.1666 15.25C13.1666 14.7917 13.5416 14.4167 14 14.4167C14.4583 14.4167 14.8333 14.7917 14.8333 15.25C14.8333 15.7084 14.4583 16.0834 14 16.0834ZM12.75 12.3334V11.5C12.75 10.8084 13.3083 10.25 14 10.25C14.6916 10.25 15.25 10.8084 15.25 11.5V12.3334H12.75Z" fill="white"/>
</g>
<defs>
<filter id="filter0_ii_145_3194" x="-2.72202" y="-1.64661" width="32.6857" height="31.7275" filterUnits="userSpaceOnUse" color-interpolation-filters="sRGB">
<feFlood flood-opacity="0" result="BackgroundImageFix"/>
<feBlend mode="normal" in="SourceGraphic" in2="BackgroundImageFix" result="shape"/>
<feColorMatrix in="SourceAlpha" type="matrix" values="0 0 0 0 0 0 0 0 0 0 0 0 0 0 0 0 0 0 127 0" result="hardAlpha"/>
<feOffset dx="2.01667" dy="2.01667"/>
<feGaussianBlur stdDeviation="2.26875"/>
<feComposite in2="hardAlpha" operator="arithmetic" k2="-1" k3="1"/>
<feColorMatrix type="matrix" values="0 0 0 0 0.887695 0 0 0 0 0.887695 0 0 0 0 0.887695 0 0 0 1 0"/>
<feBlend mode="normal" in2="shape" result="effect1_innerShadow_145_3194"/>
<feColorMatrix in="SourceAlpha" type="matrix" values="0 0 0 0 0 0 0 0 0 0 0 0 0 0 0 0 0 0 127 0" result="hardAlpha"/>
<feOffset dx="-3.025" dy="-2.01667"/>
<feGaussianBlur stdDeviation="2.52083"/>
<feComposite in2="hardAlpha" operator="arithmetic" k2="-1" k3="1"/>
<feColorMatrix type="matrix" values="0 0 0 0 0.829362 0 0 0 0 0.829362 0 0 0 0 0.829362 0 0 0 0.5 0"/>
<feBlend mode="normal" in2="effect1_innerShadow_145_3194" result="effect2_innerShadow_145_3194"/>
</filter>
<clipPath id="clip0_145_3194">
<rect width="10" height="10" fill="white" transform="translate(9 9)"/>
</clipPath>
</defs>
</svg>
