<svg width="28" height="28" viewBox="0 0 28 28" fill="none" xmlns="http://www.w3.org/2000/svg">
<path fill-rule="evenodd" clip-rule="evenodd" d="M15.9298 0.823115C14.8763 -0.274698 13.1208 -0.274697 12.0674 0.823116L11.6171 1.29242C10.9612 1.97597 9.99276 2.26186 9.07078 2.04414L8.44481 1.89633C6.9704 1.54816 5.50117 2.49204 5.20491 3.97775L5.06667 4.67104C4.88308 5.5917 4.23057 6.34886 3.34712 6.66638L2.69445 6.90095C1.28 7.40931 0.561369 8.98243 1.10314 10.3844L1.37216 11.0806C1.70801 11.9497 1.5677 12.9309 1.00174 13.6711L0.550746 14.2609C-0.360167 15.4522 -0.114648 17.1593 1.09506 18.0456L1.67813 18.4728C2.43184 19.025 2.84302 19.9303 2.76293 20.8612L2.70009 21.5916C2.57076 23.0948 3.70881 24.4078 5.21513 24.4932L5.87792 24.5308C6.82003 24.5843 7.66438 25.1299 8.10022 25.9668L8.41249 26.5665C9.11441 27.9144 10.7965 28.4081 12.1155 27.6534L12.6694 27.3365C13.4929 26.8653 14.5043 26.8653 15.3277 27.3365L15.8816 27.6534C17.2007 28.4081 18.8828 27.9144 19.5847 26.5665L19.8969 25.9668C20.3328 25.1299 21.1771 24.5843 22.1192 24.5308L22.782 24.4932C24.2884 24.4078 25.4264 23.0948 25.2971 21.5916L25.2342 20.8612C25.1541 19.9303 25.5653 19.025 26.319 18.4728L26.9021 18.0456C28.1118 17.1593 28.3573 15.4522 27.4464 14.2609L26.9954 13.6711C26.4295 12.9309 26.2892 11.9497 26.625 11.0806L26.894 10.3844C27.4358 8.98243 26.7172 7.40931 25.3027 6.90095L24.65 6.66638C23.7666 6.34886 23.1141 5.5917 22.9305 4.67104L22.7922 3.97775C22.496 2.49204 21.0268 1.54816 19.5524 1.89633L18.9264 2.04414C18.0044 2.26186 17.036 1.97597 16.3801 1.29242L15.9298 0.823115ZM10.019 14.201C9.64321 13.8173 9.03397 13.8173 8.6582 14.201C8.28243 14.5847 8.28243 15.2069 8.6582 15.5906L11.2605 18.2479C11.395 18.3852 11.5593 18.4733 11.7321 18.5124C12.0753 18.6454 12.4781 18.5708 12.7546 18.2885L18.9486 11.9636C19.3244 11.5798 19.3244 10.9577 18.9486 10.574C18.5729 10.1903 17.9636 10.1903 17.5879 10.574L12.0275 16.252L10.019 14.201ZM14.0206 24.4076C19.716 24.4076 24.3331 19.7413 24.3331 13.9852C24.3331 8.229 19.716 3.5627 14.0206 3.5627C8.3251 3.5627 3.708 8.229 3.708 13.9852C3.708 19.7413 8.3251 24.4076 14.0206 24.4076ZM14.0206 22.3231C9.46419 22.3231 5.77052 18.5901 5.77052 13.9852C5.77052 9.38023 9.46419 5.6472 14.0206 5.6472C18.5769 5.6472 22.2706 9.38023 22.2706 13.9852C22.2706 18.5901 18.5769 22.3231 14.0206 22.3231Z" fill="#130338"/>
<mask id="mask0_145_3164" style="mask-type:alpha" maskUnits="userSpaceOnUse" x="3" y="3" width="22" height="22">
<path d="M14.0206 4.60493C14.0206 4.02931 14.4884 3.55717 15.061 3.61585C17.0047 3.81504 18.8603 4.56926 20.4056 5.80065C22.2248 7.25027 23.508 9.27674 24.0485 11.5534C24.589 13.8302 24.3553 16.2245 23.385 18.3505C22.4147 20.4766 20.7643 22.2105 18.6999 23.2729C16.6354 24.3353 14.2772 24.6642 12.0052 24.2066C9.73327 23.7491 7.67991 22.5317 6.1761 20.7507C4.67228 18.9698 3.80561 16.7289 3.71577 14.3893C3.63939 12.4005 4.12818 10.4388 5.1136 8.73215C5.40147 8.23358 6.05937 8.13264 6.52323 8.47363C6.98051 8.80979 7.07538 9.44902 6.80272 9.94679C6.07623 11.2731 5.71806 12.7808 5.77673 14.3085C5.8486 16.1802 6.54194 17.9728 7.74499 19.3976C8.94804 20.8224 10.5907 21.7963 12.4083 22.1623C14.2259 22.5284 16.1125 22.2652 17.764 21.4153C19.4156 20.5655 20.7358 19.1783 21.5121 17.4775C22.2883 15.7766 22.4753 13.8611 22.0429 12.0398C21.6105 10.2184 20.5839 8.59725 19.1286 7.43755C17.9473 6.49626 16.5394 5.90349 15.06 5.7136C14.4891 5.64032 14.0206 5.18054 14.0206 4.60493Z" fill="white" fill-opacity="0.2"/>
</mask>
<g mask="url(#mask0_145_3164)">
</g>
</svg>
