<svg width="22" height="24" viewBox="0 0 22 24" fill="none" xmlns="http://www.w3.org/2000/svg">
<g filter="url(#filter0_d_198_1561)">
<path d="M9.575 13.175L15.475 7.275C15.6583 7.09167 15.8917 7 16.175 7C16.4583 7 16.6917 7.09167 16.875 7.275C17.0583 7.45833 17.15 7.69167 17.15 7.975C17.15 8.25833 17.0583 8.49167 16.875 8.675L10.275 15.275C10.075 15.475 9.84167 15.575 9.575 15.575C9.30833 15.575 9.075 15.475 8.875 15.275L6.275 12.675C6.09167 12.4917 6 12.2583 6 11.975C6 11.6917 6.09167 11.4583 6.275 11.275C6.45833 11.0917 6.69167 11 6.975 11C7.25833 11 7.49167 11.0917 7.675 11.275L9.575 13.175Z" fill="white"/>
</g>
<defs>
<filter id="filter0_d_198_1561" x="-4" y="0" width="29" height="30" filterUnits="userSpaceOnUse" color-interpolation-filters="sRGB">
<feFlood flood-opacity="0" result="BackgroundImageFix"/>
<feColorMatrix in="SourceAlpha" type="matrix" values="0 0 0 0 0 0 0 0 0 0 0 0 0 0 0 0 0 0 127 0" result="hardAlpha"/>
<feOffset dy="4"/>
<feGaussianBlur stdDeviation="2"/>
<feComposite in2="hardAlpha" operator="out"/>
<feColorMatrix type="matrix" values="0 0 0 0 0 0 0 0 0 0 0 0 0 0 0 0 0 0 0.25 0"/>
<feBlend mode="normal" in2="BackgroundImageFix" result="effect1_dropShadow_198_1561"/>
<feBlend mode="normal" in="SourceGraphic" in2="effect1_dropShadow_198_1561" result="shape"/>
</filter>
</defs>
</svg>
