<svg width="28" height="28" viewBox="0 0 28 28" fill="none" xmlns="http://www.w3.org/2000/svg">
<path d="M24 14C24 19.5228 19.5228 24 14 24C8.47715 24 4 19.5228 4 14C4 8.47715 8.47715 4 14 4C19.5228 4 24 8.47715 24 14ZM5.8 14C5.8 18.5287 9.47127 22.2 14 22.2C18.5287 22.2 22.2 18.5287 22.2 14C22.2 9.47127 18.5287 5.8 14 5.8C9.47127 5.8 5.8 9.47127 5.8 14Z" fill="#EFF0FF"/>
<path d="M14 4.9C14 4.40294 14.4038 3.9958 14.8988 4.04047C16.5594 4.19032 18.1614 4.75367 19.5557 5.6853C21.2002 6.78412 22.4819 8.3459 23.2388 10.1732C23.9957 12.0004 24.1937 14.0111 23.8079 15.9509C23.422 17.8907 22.4696 19.6725 21.0711 21.0711C19.6725 22.4696 17.8907 23.422 15.9509 23.8079C14.0111 24.1937 12.0004 23.9957 10.1732 23.2388C8.3459 22.4819 6.78412 21.2002 5.6853 19.5557C4.75367 18.1614 4.19032 16.5594 4.04047 14.8988C3.9958 14.4038 4.40294 14 4.9 14C5.39706 14 5.79489 14.4041 5.84934 14.8982C5.99304 16.2023 6.4482 17.4575 7.18195 18.5557C8.08298 19.9042 9.36364 20.9552 10.862 21.5758C12.3603 22.1965 14.0091 22.3588 15.5997 22.0424C17.1904 21.726 18.6515 20.9451 19.7983 19.7983C20.9451 18.6515 21.726 17.1904 22.0424 15.5997C22.3588 14.0091 22.1965 12.3603 21.5758 10.862C20.9552 9.36364 19.9042 8.08298 18.5557 7.18195C17.4575 6.4482 16.2023 5.99304 14.8982 5.84934C14.4041 5.79489 14 5.39706 14 4.9Z" fill="#2B1C50"/>
<g filter="url(#filter0_ii_145_3149)">
<path d="M11.793 1.2991C12.9966 0.045239 15.0034 0.0452394 16.207 1.2991C16.9557 2.0791 18.0613 2.40572 19.1136 2.15733C20.7966 1.76004 22.4792 2.86513 22.8175 4.56102C23.0295 5.62399 23.7861 6.51342 24.8061 6.8799C26.4395 7.46673 27.2613 9.30423 26.6355 10.9231C26.2435 11.9371 26.4055 13.0971 27.066 13.9606C28.1248 15.3448 27.8445 17.3352 26.4385 18.365C25.5626 19.0065 25.0861 20.075 25.1792 21.1568C25.3276 22.881 24.0248 24.417 22.2969 24.515C21.2164 24.5763 20.2436 25.2104 19.7436 26.1702C18.9434 27.7063 17.0183 28.2844 15.5148 27.4245C14.5763 26.8877 13.4237 26.8877 12.4852 27.4245C10.9817 28.2844 9.05662 27.7063 8.25638 26.1702C7.75638 25.2104 6.78356 24.5763 5.70308 24.515C3.97524 24.417 2.67241 22.881 2.82081 21.1568C2.91391 20.075 2.43745 19.0065 1.5615 18.365C0.155545 17.3352 -0.124819 15.3448 0.933979 13.9606C1.59448 13.0971 1.7565 11.9371 1.36451 10.9231C0.738702 9.30423 1.56047 7.46673 3.19386 6.8799C4.21394 6.51342 4.97046 5.62399 5.1825 4.56102C5.5208 2.86513 7.20337 1.76004 8.88642 2.15733C9.93871 2.40572 11.0443 2.0791 11.793 1.2991Z" fill="#B2B3F1"/>
</g>
<path d="M24 14C24 19.5228 19.5228 24 14 24C8.47715 24 4 19.5228 4 14C4 8.47715 8.47715 4 14 4C19.5228 4 24 8.47715 24 14ZM5.8 14C5.8 18.5287 9.47127 22.2 14 22.2C18.5287 22.2 22.2 18.5287 22.2 14C22.2 9.47127 18.5287 5.8 14 5.8C9.47127 5.8 5.8 9.47127 5.8 14Z" fill="#EFF0FF"/>
<path d="M24 14C24 19.5228 19.5228 24 14 24C8.47715 24 4 19.5228 4 14C4 8.47715 8.47715 4 14 4C19.5228 4 24 8.47715 24 14ZM5.8 14C5.8 18.5287 9.47127 22.2 14 22.2C18.5287 22.2 22.2 18.5287 22.2 14C22.2 9.47127 18.5287 5.8 14 5.8C9.47127 5.8 5.8 9.47127 5.8 14Z" fill="#2B1C50"/>
<path d="M12.2058 15.7519L17.4676 10.2726C17.8166 9.90914 18.3893 9.90914 18.7383 10.2726C19.0872 10.636 19.0872 11.2231 18.7383 11.5865L12.8412 17.7274C12.4922 18.0909 11.9284 18.0909 11.5794 17.7274L9.26174 15.3139C8.91275 14.9505 8.91275 14.3634 9.26174 14C9.61074 13.6366 10.1745 13.6366 10.5235 14L12.2058 15.7519Z" fill="#2B1C50"/>
<defs>
<filter id="filter0_ii_145_3149" x="-2.73276" y="-1.65796" width="32.4572" height="31.4987" filterUnits="userSpaceOnUse" color-interpolation-filters="sRGB">
<feFlood flood-opacity="0" result="BackgroundImageFix"/>
<feBlend mode="normal" in="SourceGraphic" in2="BackgroundImageFix" result="shape"/>
<feColorMatrix in="SourceAlpha" type="matrix" values="0 0 0 0 0 0 0 0 0 0 0 0 0 0 0 0 0 0 127 0" result="hardAlpha"/>
<feOffset dx="2.01667" dy="2.01667"/>
<feGaussianBlur stdDeviation="2.26875"/>
<feComposite in2="hardAlpha" operator="arithmetic" k2="-1" k3="1"/>
<feColorMatrix type="matrix" values="0 0 0 0 0.887695 0 0 0 0 0.887695 0 0 0 0 0.887695 0 0 0 1 0"/>
<feBlend mode="normal" in2="shape" result="effect1_innerShadow_145_3149"/>
<feColorMatrix in="SourceAlpha" type="matrix" values="0 0 0 0 0 0 0 0 0 0 0 0 0 0 0 0 0 0 127 0" result="hardAlpha"/>
<feOffset dx="-3.025" dy="-2.01667"/>
<feGaussianBlur stdDeviation="2.52083"/>
<feComposite in2="hardAlpha" operator="arithmetic" k2="-1" k3="1"/>
<feColorMatrix type="matrix" values="0 0 0 0 0.829362 0 0 0 0 0.829362 0 0 0 0 0.829362 0 0 0 0.5 0"/>
<feBlend mode="normal" in2="effect1_innerShadow_145_3149" result="effect2_innerShadow_145_3149"/>
</filter>
</defs>
</svg>
